<svg xmlns="http://www.w3.org/2000/svg" xmlns:xlink="http://www.w3.org/1999/xlink" viewBox="0 0 16 16" width="16" height="16" style="width: 16px; height: 16px;"><path d="M5.1911266666666664 0.9880383333333334C4.908345 1.1859883333333332 4.839576666666666 1.5756933333333332 5.0375266666666665 1.8584683333333332L6.109626666666665 3.3900216666666663C6.307576666666667 3.6728033333333334 6.697288333333333 3.7415716666666663 6.980041666666667 3.5436216666666667C7.26285 3.345673333333333 7.3316 2.955966666666666 7.133666666666667 2.6731916666666664L6.061558333333332 1.1416383333333333C5.863613333333333 0.8588566666666666 5.473901666666667 0.7900883333333333 5.1911266666666664 0.9880383333333334z" fill="#008ac5"></path><path d="M10.808908333333331 0.9880316666666666C10.52615 0.7900883333333333 10.136408333333332 0.8588566666666666 9.938466666666667 1.1416383333333333L8.866399999999999 2.6731916666666664C8.668458333333334 2.9559716666666667 8.737216666666665 3.345678333333333 9.020024999999999 3.543628333333333C9.302775 3.7415716666666663 9.692466666666666 3.6728033333333334 9.890458333333333 3.3900216666666663L10.962533333333333 1.8584683333333332C11.160466666666665 1.5756883333333334 11.091716666666665 1.1859816666666667 10.808908333333331 0.9880316666666666z" fill="#008ac5"></path><path d="M8.388033333333333 8.2152L8.548749999999998 7.036716666666667L7.611974999999999 7.036716666666667L7.45125 8.2152L8.388033333333333 8.2152z" fill="#008ac5"></path><path d="M8 2.559733333333333C6.498214999999999 2.559733333333333 5.16768 2.6184066666666665 4.195425 2.678813333333333C2.923148333333333 2.75786 1.9012316666666664 3.7431133333333335 1.8069283333333335 5.026566666666666C1.7538833333333335 5.748475 1.7082533333333334 6.652113333333333 1.7082533333333334 7.626266666666666C1.7082533333333334 8.604275 1.75425 9.504349999999999 1.8075966666666665 10.219908333333333C1.9018333333333333 11.483925 2.899678333333333 12.460316666666666 4.154273333333333 12.551708333333332C5.104525 12.620916666666668 6.4048050000000005 12.688916666666666 7.876416666666666 12.692558333333332C8.379624999999999 13.169883333333333 9.433408333333333 14.084808333333331 10.662975 14.643741666666665C11.005616666666665 14.799541666666666 11.427091666666666 14.859316666666667 11.735999999999999 14.576575C12.039016666666665 14.299274999999998 12.024899999999999 13.881124999999999 11.919241666666666 13.523958333333333C11.811016666666664 13.158316666666666 11.757858333333333 12.821666666666667 11.73155 12.559758333333335C13.013916666666667 12.468349999999997 14.093808333333332 11.543458333333334 14.192449999999997 10.220175C14.245791666666666 9.504874999999998 14.291733333333333 8.604875 14.291733333333333 7.626266666666666C14.291733333333333 6.6514999999999995 14.246125 5.74798 14.193108333333331 5.026299999999999C14.098808333333332 3.7429283333333334 13.076958333333332 2.757873333333333 11.804816666666664 2.6788266666666662C10.832533333333332 2.6184133333333333 9.501883333333334 2.559733333333333 8 2.559733333333333zM6.536343333333332 10.730624999999998C6.226251666666666 10.688316666666665 6.009155 10.402649999999998 6.0514399999999995 10.092558333333333L6.152898333333334 9.348533333333332L5.457055 9.348533333333332C5.144096666666666 9.348533333333332 4.890388333333333 9.094850000000001 4.890388333333333 8.781866666666666C4.890388333333333 8.468933333333332 5.144096666666666 8.2152 5.457055 8.2152L6.307441666666667 8.2152L6.468145 7.036716666666667L5.457055 7.036716666666667C5.144096666666666 7.036716666666667 4.890388333333333 6.783036666666668 4.890388333333333 6.470073333333333C4.890388333333333 6.15711 5.144096666666666 5.903406666666666 5.457055 5.903406666666666L6.6226883333333335 5.903406666666666L6.744933333333333 5.006731666666666C6.787241666666667 4.6966399999999995 7.0729083333333325 4.479536666666666 7.383 4.521823333333333C7.693091666666666 4.564108333333333 7.910191666666667 4.849765 7.867875 5.159858333333333L7.766483333333333 5.903406666666666L8.703325 5.903406666666666L8.825558333333333 5.006731666666666C8.867866666666666 4.6966399999999995 9.153533333333332 4.479536666666666 9.463625 4.521823333333333C9.773716666666667 4.564108333333333 9.990816666666666 4.849765 9.948508333333333 5.159858333333333L9.847116666666667 5.903406666666666L10.542933333333332 5.903406666666666C10.855858333333332 5.903406666666666 11.1096 6.15711 11.1096 6.470073333333333C11.1096 6.783036666666668 10.855858333333332 7.036716666666667 10.542933333333332 7.036716666666667L9.692599999999999 7.036716666666667L9.531875 8.2152L10.542933333333332 8.2152C10.855858333333332 8.2152 11.1096 8.468933333333332 11.1096 8.781866666666666C11.1096 9.094850000000001 10.855858333333332 9.348533333333332 10.542933333333332 9.348533333333332L9.377308333333332 9.348533333333332L9.255008333333333 10.245691666666666C9.212691666666666 10.555783333333332 8.927033333333332 10.772874999999999 8.616941666666666 10.730624999999998C8.306849999999999 10.688316666666665 8.089749999999999 10.402649999999998 8.132058333333333 10.092558333333333L8.233516666666667 9.348533333333332L7.296741666666667 9.348533333333332L7.1743749999999995 10.245691666666666C7.132066666666667 10.555783333333332 6.846406666666667 10.772874999999999 6.536343333333332 10.730624999999998z" fill="#008ac5"></path></svg>